# xmcd
#
# Track frame offsets:
#	150
#	29584
#	45674
#	72567
#	99756
#	136686
#
# Disc length: 2256 seconds
#
# Revision: 0
# Processed by: cddbd v1.5.1PL0 Copyright (c) Steve Scherf et al.
# Submitted via: EasyCDDAExtractor 7.1.2.1
#
DISCID=4a08ce06
DTITLE=Whitesnake - Live In Saarbrucken - CD 2
DYEAR=1979
DGENRE=Hard Rock
TTITLE0=Belgian Toms Hat Trick
TTITLE1=Lie Down
TTITLE2=Jon Lord Organ Solo
TTITLE3=Breakdown
TTITLE4=Rock Me Baby
TTITLE5=Take Me With You
EXTD=
EXTT0=
EXTT1=
EXTT2=
EXTT3=
EXTT4=
EXTT5=
PLAYORDER=
